<mxfile host="65bd71144e">
    <diagram id="aHDhntRDtbnG1rIvJsvn" name="Page-1">
        <mxGraphModel dx="533" dy="1393" grid="1" gridSize="10" guides="1" tooltips="1" connect="1" arrows="1" fold="1" page="1" pageScale="1" pageWidth="850" pageHeight="1100" math="0" shadow="0">
            <root>
                <mxCell id="0"/>
                <mxCell id="1" parent="0"/>
                <mxCell id="2" value="e1" style="whiteSpace=wrap;html=1;aspect=fixed;" vertex="1" parent="1">
                    <mxGeometry x="40" y="280" width="80" height="80" as="geometry"/>
                </mxCell>
                <mxCell id="3" value="e1" style="whiteSpace=wrap;html=1;aspect=fixed;" vertex="1" parent="1">
                    <mxGeometry x="200" y="280" width="80" height="80" as="geometry"/>
                </mxCell>
                <mxCell id="4" value="e2" style="whiteSpace=wrap;html=1;aspect=fixed;" vertex="1" parent="1">
                    <mxGeometry x="200" y="200" width="80" height="80" as="geometry"/>
                </mxCell>
                <mxCell id="7" value="" style="endArrow=classic;html=1;" edge="1" parent="1">
                    <mxGeometry width="50" height="50" relative="1" as="geometry">
                        <mxPoint x="128" y="190" as="sourcePoint"/>
                        <mxPoint x="198" y="180" as="targetPoint"/>
                        <Array as="points">
                            <mxPoint x="158" y="160"/>
                        </Array>
                    </mxGeometry>
                </mxCell>
                <mxCell id="8" value="push(e2)" style="text;html=1;align=center;verticalAlign=middle;resizable=0;points=[];autosize=1;strokeColor=none;fillColor=none;" vertex="1" parent="1">
                    <mxGeometry x="128" y="130" width="60" height="20" as="geometry"/>
                </mxCell>
                <mxCell id="9" value="e1" style="whiteSpace=wrap;html=1;aspect=fixed;" vertex="1" parent="1">
                    <mxGeometry x="360" y="280" width="80" height="80" as="geometry"/>
                </mxCell>
                <mxCell id="10" value="" style="endArrow=classic;html=1;" edge="1" parent="1">
                    <mxGeometry width="50" height="50" relative="1" as="geometry">
                        <mxPoint x="290" y="190" as="sourcePoint"/>
                        <mxPoint x="360" y="180" as="targetPoint"/>
                        <Array as="points">
                            <mxPoint x="320" y="160"/>
                        </Array>
                    </mxGeometry>
                </mxCell>
                <mxCell id="11" value="pop()" style="text;html=1;align=center;verticalAlign=middle;resizable=0;points=[];autosize=1;strokeColor=none;fillColor=none;" vertex="1" parent="1">
                    <mxGeometry x="300" y="130" width="40" height="20" as="geometry"/>
                </mxCell>
            </root>
        </mxGraphModel>
    </diagram>
</mxfile>